# xmcd
#
# Track frame offsets:
#	150
#	20043
#	42459
#	64664
#	84773
#	100449
#	116554
#	133372
#	147298
#	168511
#	185715
#	200394
#	218524
#	237556
#	256653
#	274668
#	297771
#	314764
#	330264
#
# Disc length: 4657 seconds
#
# Revision: 1
# Processed by: cddbd v1.5.1PL0 Copyright (c) Steve Scherf et al.
# Submitted via: audiograbber 1.82.01
#
DISCID=20122f13
DTITLE=Сборник - Настоящий убойный шансон 2
DYEAR=2005
DGENRE=шансон
TTITLE0=Гр. "Бумер" - Выхожу
TTITLE1=Анатолий Полотно - Прямо сейчас
TTITLE2=Михаил Звездинский - Яркая осень
TTITLE3=Александр Поручик - Шурик
TTITLE4=Вадим Кузема, Лора Григ - Дай мне вольную
TTITLE5=Сергей Грубов, Жека - Годы молодые
TTITLE6=Ляля Размахова - Редька
TTITLE7=Виталий Волин - Милая моя
TTITLE8=Владимир Хозяенко - Пуля-дура
TTITLE9=Андрей Данцев - Два бога
TTITLE10=Петрович - Маленькая женщина
TTITLE11=Андрей Школин - Плач черемухи
TTITLE12=Влад Градов - Горькая
TTITLE13=Гр. "Свидание" - Северный ветер
TTITLE14=Николай Юрьевич - Засада
TTITLE15=Сергей Влас - На заснеженных полях
TTITLE16=Бригада "Солнечный город" - Не стреляйте в белых лебедей
TTITLE17=Александр Юрков - Гимн перестройке
TTITLE18=Гера Грач - Сестренка
EXTD=
EXTT0=
EXTT1=
EXTT2=
EXTT3=
EXTT4=
EXTT5=
EXTT6=
EXTT7=
EXTT8=
EXTT9=
EXTT10=
EXTT11=
EXTT12=
EXTT13=
EXTT14=
EXTT15=
EXTT16=
EXTT17=
EXTT18=
PLAYORDER=
